HIERARCHY
ROOT pelvis
{
	OFFSET 0.000000 0.819327 -0.000000
	CHANNELS 6 Xposition Yposition Zposition Xrotation Yrotation Zrotation
	JOINT spine
	{
		OFFSET 0.000000 0.000000 0.000000
		CHANNELS 6 Xposition Yposition Zposition Xrotation Yrotation Zrotation
		JOINT spine.001
		{
			OFFSET 0.000000 0.274295 0.014375
			CHANNELS 3 Xrotation Yrotation Zrotation
			JOINT neck
			{
				OFFSET 0.000000 0.272624 -0.033474
				CHANNELS 6 Xposition Yposition Zposition Xrotation Yrotation Zrotation
				JOINT face
				{
					OFFSET 0.000000 0.229254 -0.004002
					CHANNELS 6 Xposition Yposition Zposition Xrotation Yrotation Zrotation
					End Site
					{
						OFFSET 0.000000 -0.008325 0.034789
					}
				}
			}
			JOINT shoulder.L
			{
				OFFSET 0.000000 0.272624 -0.033474
				CHANNELS 6 Xposition Yposition Zposition Yrotation Xrotation Zrotation
				JOINT upper_arm.L
				{
					OFFSET 0.176669 0.000000 0.000000
					CHANNELS 6 Xposition Yposition Zposition Xrotation Yrotation Zrotation
					JOINT forearm.L
					{
						OFFSET 0.296726 0.001035 -0.000125
						CHANNELS 6 Xposition Yposition Zposition Xrotation Yrotation Zrotation
						End Site
						{
							OFFSET 0.253303 -0.001426 0.004307
						}
					}
				}
			}
			JOINT shoulder.R
			{
				OFFSET 0.000000 0.272624 -0.033474
				CHANNELS 6 Xposition Yposition Zposition Yrotation Xrotation Zrotation
				JOINT upper_arm.R
				{
					OFFSET -0.176669 0.000000 0.000000
					CHANNELS 6 Xposition Yposition Zposition Xrotation Yrotation Zrotation
					JOINT forearm.R
					{
						OFFSET -0.290211 0.001035 -0.000125
						CHANNELS 6 Xposition Yposition Zposition Xrotation Yrotation Zrotation
						End Site
						{
							OFFSET -0.249563 -0.001426 0.004242
						}
					}
				}
			}
		}
	}
	JOINT pelvis.L
	{
		OFFSET 0.000000 0.000000 0.000000
		CHANNELS 6 Xposition Yposition Zposition Yrotation Xrotation Zrotation
		End Site
		{
			OFFSET 0.111019 0.000000 0.000000
		}
	}
	JOINT pelvis.R
	{
		OFFSET 0.000000 0.000000 0.000000
		CHANNELS 6 Xposition Yposition Zposition Yrotation Xrotation Zrotation
		End Site
		{
			OFFSET -0.111019 0.000000 0.000000
		}
	}
	JOINT thigh.L
	{
		OFFSET 0.111019 0.000000 0.000000
		CHANNELS 6 Xposition Yposition Zposition Xrotation Yrotation Zrotation
		JOINT shin.L
		{
			OFFSET 0.020713 -0.395230 0.000000
			CHANNELS 6 Xposition Yposition Zposition Xrotation Yrotation Zrotation
			JOINT foot.L
			{
				OFFSET 0.017623 -0.336258 0.000000
				CHANNELS 6 Xposition Yposition Zposition Xrotation Yrotation Zrotation
				End Site
				{
					OFFSET 0.017811 -0.076256 0.181598
				}
			}
		}
	}
	JOINT thigh.R
	{
		OFFSET -0.111019 0.000000 0.000000
		CHANNELS 6 Xposition Yposition Zposition Xrotation Yrotation Zrotation
		JOINT shin.R
		{
			OFFSET -0.020939 -0.399547 0.000000
			CHANNELS 6 Xposition Yposition Zposition Xrotation Yrotation Zrotation
			JOINT foot.R
			{
				OFFSET -0.018228 -0.347803 0.000000
				CHANNELS 6 Xposition Yposition Zposition Xrotation Yrotation Zrotation
				End Site
				{
					OFFSET -0.018558 -0.079457 0.189220
				}
			}
		}
	}
}
MOTION
Frames: 9
Frame Time: 0.041667
0.068250 -0.023231 0.099205 -0.000000 0.673188 -0.000000 0.000000 -0.000000 0.000000 -6.225512 0.168033 -1.568949 10.020720 4.400610 -0.541411 0.000000 0.272624 -0.033474 14.230871 10.252027 -1.177615 -0.000000 0.229254 -0.004002 5.589395 -0.000015 0.000008 0.000000 0.272624 -0.033474 0.256154 -0.004664 2.086682 0.176669 0.000000 0.000000 -2.546084 -2.867406 -82.657392 0.296726 0.001035 -0.000125 -0.783317 -16.242132 -5.478769 0.000000 0.272624 -0.033474 0.249686 -0.004434 2.034456 -0.176669 0.000000 -0.000000 -4.585519 5.469512 79.844256 -0.290211 0.001035 -0.000125 -0.603326 9.834046 7.895442 0.000000 0.000000 0.000000 0.000058 0.000001 -1.948251 0.000000 0.000000 0.000000 0.000000 -0.000000 -1.948251 0.110955 -0.003774 -0.000000 12.817580 0.241186 -3.852983 0.020713 -0.395230 0.000000 -5.168931 -0.484921 4.711907 0.017623 -0.336258 0.000000 -9.726940 8.391500 5.350526 -0.110955 0.003774 -0.000000 13.391975 -0.881791 -1.500243 -0.020939 -0.399547 0.000000 -5.234602 0.312859 -0.835961 -0.018228 -0.347803 0.000000 -12.790966 -2.114755 -2.497572 
0.073489 -0.023463 0.100782 -0.000000 0.546751 -0.000000 -0.000000 -0.000000 0.000000 -6.356204 0.161687 -1.493619 10.023858 4.706565 -0.579190 0.000000 0.272624 -0.033474 14.084092 9.295485 -1.658826 0.000000 0.229254 -0.004002 5.473427 -0.000011 0.000004 -0.000000 0.272624 -0.033474 0.243767 -0.004225 1.985707 0.176669 -0.000000 -0.000000 -2.396491 -2.694767 -82.686516 0.296726 0.001035 -0.000125 -0.792491 -16.601062 -5.397613 -0.000000 0.272624 -0.033474 0.237337 -0.004005 1.933477 -0.176669 0.000000 0.000000 -4.540725 5.418162 79.817720 -0.290211 0.001035 -0.000125 -0.658153 10.117142 8.359513 -0.000000 -0.000000 0.000000 -0.000023 -0.000001 -2.040838 -0.000000 0.000000 0.000000 0.000000 -0.000000 -2.040807 0.110948 -0.003954 0.000000 12.948066 0.187726 -4.345748 0.020713 -0.395230 0.000000 -5.104793 -0.481186 4.762842 0.017623 -0.336258 0.000000 -10.292463 8.599903 5.571552 -0.110948 0.003954 -0.000000 13.479751 -0.940417 -1.944993 -0.020939 -0.399547 0.000000 -5.244969 0.306851 -0.691764 -0.018228 -0.347803 0.000000 -12.895658 -1.987349 -2.440667 
0.077920 -0.023813 0.102093 -0.000000 0.526090 -0.000000 -0.000000 -0.000000 -0.000000 -6.469155 0.164347 -1.504337 10.024129 4.729188 -0.581975 0.000000 0.272624 -0.033474 13.969508 8.275794 -2.140942 0.000000 0.229254 -0.004002 5.450529 0.000003 -0.000002 -0.000000 0.272624 -0.033474 0.226305 -0.003639 1.843368 0.176669 -0.000000 -0.000000 -2.363649 -2.663570 -82.551476 0.296726 0.001035 -0.000125 -0.813181 -16.646295 -5.537946 -0.000000 0.272624 -0.033474 0.219870 -0.003436 1.791137 -0.176669 0.000000 -0.000000 -4.531933 5.401314 79.882819 -0.290211 0.001035 -0.000125 -0.701309 10.448039 8.583310 -0.000000 0.000000 0.000000 0.000054 0.000001 -2.147128 -0.000000 0.000000 0.000000 0.000000 -0.000000 -2.147128 0.110941 -0.004159 -0.000000 13.040071 0.151151 -4.677530 0.020713 -0.395230 0.000000 -5.079490 -0.475868 4.697340 0.017623 -0.336258 0.000000 -10.633349 8.630774 5.656408 -0.110941 0.004159 -0.000000 13.542090 -0.983744 -2.271320 -0.020939 -0.399547 0.000000 -5.210604 0.303761 -0.668214 -0.018228 -0.347803 0.000000 -13.002457 -1.892369 -2.401830 
0.081534 -0.024250 0.102736 -0.000000 0.603105 -0.000000 -0.000000 -0.000000 -0.000000 -6.507530 0.175320 -1.599807 10.024030 4.724416 -0.581411 0.000000 0.272624 -0.033474 13.734939 7.411714 -2.371495 -0.000000 0.229253 -0.004002 5.617358 0.000001 -0.000001 -0.000000 0.272624 -0.033474 0.215386 -0.003296 1.754052 0.176669 0.000000 0.000000 -2.465389 -2.787460 -82.407762 0.296726 0.001035 -0.000125 -0.811620 -16.447782 -5.611587 -0.000000 0.272624 -0.033474 0.208976 -0.003105 1.701899 -0.176669 -0.000000 0.000000 -4.499562 5.367467 79.829168 -0.290211 0.001035 -0.000125 -0.738068 10.775875 8.711294 -0.000000 -0.000000 0.000000 -0.000023 -0.000001 -2.260999 -0.000000 0.000000 0.000000 0.000000 -0.000000 -2.261030 0.110932 -0.004380 -0.000000 13.118759 0.128298 -4.884217 0.020713 -0.395230 0.000000 -5.226590 -0.483439 4.562098 0.017623 -0.336258 0.000000 -10.767824 8.549812 5.640832 -0.110932 0.004380 0.000000 13.592602 -1.008619 -2.448028 -0.020939 -0.399547 0.000000 -5.212918 0.308997 -0.779855 -0.018228 -0.347803 0.000000 -13.062915 -1.854650 -2.388695 
0.084780 -0.024875 0.103000 -0.000000 0.789440 -0.000000 -0.000000 -0.000000 0.000000 -6.528669 0.191118 -1.740956 10.025614 4.873174 -0.599789 0.000000 0.272624 -0.033474 13.484545 6.894442 -2.310541 0.000000 0.229253 -0.004002 5.850058 0.000000 -0.000002 0.000000 0.272624 -0.033474 0.216250 -0.003326 1.761677 0.176669 -0.000000 -0.000000 -2.659744 -3.010169 -82.423274 0.296726 0.001035 -0.000125 -0.785078 -16.288656 -5.472547 0.000000 0.272624 -0.033474 0.209877 -0.003131 1.709484 -0.176669 0.000000 0.000000 -4.417066 5.286572 79.635320 -0.290211 0.001035 -0.000125 -0.757532 10.993697 8.728854 -0.000000 0.000000 0.000000 0.000031 0.000000 -2.384669 -0.000000 0.000000 0.000000 0.000000 -0.000000 -2.384701 0.110923 -0.004619 0.000000 13.250486 0.113569 -5.022202 0.020713 -0.395230 0.000000 -5.634614 -0.514002 4.416300 0.017623 -0.336258 0.000000 -10.687095 8.401107 5.546196 -0.110923 0.004619 -0.000000 13.656886 -1.023697 -2.533255 -0.020939 -0.399547 0.000000 -5.218504 0.318351 -0.977127 -0.018228 -0.347803 0.000000 -13.101192 -1.936526 -2.439430 
0.088219 -0.025645 0.103317 -0.000000 1.050252 -0.000000 -0.000000 -0.000000 0.000000 -6.579417 0.206671 -1.874974 10.027319 5.036174 -0.619951 0.000000 0.272624 -0.033474 13.437533 6.968557 -2.178307 0.000000 0.229254 -0.004002 5.949998 0.000009 0.000001 -0.000000 0.272624 -0.033474 0.218140 -0.003383 1.777048 0.176669 0.000000 -0.000000 -2.843005 -3.213843 -82.546374 0.296726 0.001035 -0.000125 -0.771961 -16.233729 -5.392509 0.000000 0.272624 -0.033474 0.211732 -0.003183 1.724856 -0.176669 -0.000000 0.000000 -4.416620 5.292595 79.565789 -0.290211 0.001035 -0.000125 -0.741078 10.985792 8.530854 -0.000000 0.000000 0.000000 0.000069 0.000001 -2.511116 0.000000 0.000000 0.000000 -0.000000 -0.000000 -2.511122 0.110912 -0.004864 0.000000 13.423092 0.099381 -5.155450 0.020713 -0.395230 0.000000 -6.199804 -0.560119 4.314818 0.017623 -0.336258 0.000000 -10.380792 8.214581 5.387468 -0.110912 0.004864 -0.000000 13.658740 -1.033663 -2.614831 -0.020939 -0.399547 0.000000 -4.982693 0.314556 -1.220001 -0.018228 -0.347803 0.000000 -13.227882 -2.107045 -2.551605 
0.092048 -0.026306 0.103835 -0.000000 1.285085 -0.000000 -0.000000 -0.000000 -0.000000 -6.641918 0.216867 -1.957653 10.027062 5.016804 -0.617580 0.000000 0.272624 -0.033474 13.635048 7.704926 -2.195498 0.000000 0.229254 -0.004002 5.877694 0.000004 -0.000009 -0.000000 0.272624 -0.033474 0.207211 -0.003052 1.687492 0.176669 -0.000000 0.000000 -2.877777 -3.251211 -82.589186 0.296726 0.001035 -0.000125 -0.812892 -16.211147 -5.726814 -0.000000 0.272624 -0.033474 0.200787 -0.002866 1.635342 -0.176669 -0.000000 0.000000 -4.595228 5.484041 79.814845 -0.290211 0.001035 -0.000125 -0.706084 10.880864 8.195377 -0.000000 0.000000 0.000000 0.000019 0.000001 -2.609995 0.000000 0.000000 0.000000 0.000000 -0.000000 -2.609996 0.110904 -0.005055 -0.000000 13.528989 0.079898 -5.326368 0.020713 -0.395230 0.000000 -6.625044 -0.595926 4.268683 0.017623 -0.336258 0.000000 -9.997975 8.032690 5.217664 -0.110904 0.005056 0.000000 13.482348 -1.038517 -2.769036 -0.020939 -0.399547 0.000000 -4.302057 0.279334 -1.426494 -0.018228 -0.347803 0.000000 -13.537748 -2.251430 -2.674436 
0.096035 -0.026626 0.104553 -0.000000 1.431345 -0.000000 0.000000 -0.000000 0.000000 -6.704547 0.220294 -1.978699 10.025841 4.904376 -0.603673 0.000000 0.272624 -0.033474 13.879800 8.627575 -2.352861 -0.000000 0.229254 -0.004002 5.763645 -0.000002 0.000004 -0.000000 0.272624 -0.033474 0.186507 -0.002470 1.519410 0.176669 -0.000000 0.000000 -2.736930 -3.093586 -82.519388 0.296726 0.001035 -0.000125 -0.899125 -16.209871 -6.411047 -0.000000 0.272624 -0.033474 0.180098 -0.002307 1.467222 -0.176669 -0.000000 0.000000 -4.843456 5.740285 80.227429 -0.290211 0.001035 -0.000125 -0.684423 10.888518 7.913082 0.000000 -0.000000 0.000000 -0.000039 -0.000001 -2.663762 0.000000 0.000000 0.000000 0.000000 -0.000000 -2.663793 0.110899 -0.005160 -0.000000 13.487799 0.055688 -5.529024 0.020713 -0.395230 0.000000 -6.646922 -0.595724 4.231490 0.017623 -0.336258 0.000000 -9.836628 7.873281 5.103754 -0.110899 0.005160 -0.000000 13.109470 -1.039194 -3.025566 -0.020939 -0.399547 0.000000 -3.250651 0.212640 -1.483307 -0.018228 -0.347803 0.000000 -13.991590 -2.330238 -2.780978 
0.099828 -0.026589 0.105348 -0.000000 1.543798 -0.000000 -0.000000 -0.000000 0.000000 -6.775306 0.221422 -1.977705 10.026443 4.961252 -0.610707 -0.000000 0.272624 -0.033474 13.951873 8.966808 -2.471279 0.000000 0.229254 -0.004002 5.690847 -0.000013 0.000008 -0.000000 0.272624 -0.033474 0.174036 -0.002155 1.417649 0.176669 -0.000000 0.000000 -2.594838 -2.930655 -82.516314 0.296726 0.001035 -0.000125 -0.972291 -16.148580 -7.024040 -0.000000 0.272624 -0.033474 0.167629 -0.001997 1.365457 -0.176669 0.000000 0.000000 -4.989232 5.884543 80.512392 -0.290211 0.001035 -0.000125 -0.671505 10.957727 7.684566 -0.000000 -0.000000 0.000000 -0.000027 -0.000000 -2.699700 -0.000000 0.000000 0.000000 0.000000 -0.000000 -2.699700 0.110895 -0.005229 -0.000000 13.328846 0.032623 -5.720750 0.020713 -0.395230 0.000000 -6.287735 -0.558870 4.148472 0.017623 -0.336258 0.000000 -10.062214 7.700980 5.057449 -0.110895 0.005229 0.000000 12.596692 -1.031168 -3.322238 -0.020939 -0.399547 0.000000 -2.036459 0.131932 -1.412807 -0.018228 -0.347803 0.000000 -14.424702 -2.431229 -2.898427 
